<svg xmlns="http://www.w3.org/2000/svg" viewBox="0 0 303.8 312.4" width="303.8" height="312.4"><defs><linearGradient id="ink_m" x1="0" y1="0" x2="0" y2="312.408" gradientUnits="userSpaceOnUse"><stop offset="0" stop-color="#FF7D35"/><stop offset="1" stop-color="#FF6B1A"/></linearGradient><filter id="glow_m" x="-50%" y="-50%" width="200%" height="200%"><feGaussianBlur stdDeviation="12.5"/></filter></defs><g filter="url(#glow_m)" opacity="0.5"><path transform="translate(17.100 211.140) scale(0.25200 -0.25200)" d="M189.0 92H424.0V0H75.0V695H189.0ZM995.0 551 657.0 -259H539.0L651.0 9L434.0 551H561.0L716.0 131L877.0 551Z" fill="#FF6B1A"/></g><path transform="translate(17.100 211.140) scale(0.25200 -0.25200)" d="M189.0 92H424.0V0H75.0V695H189.0ZM995.0 551 657.0 -259H539.0L651.0 9L434.0 551H561.0L716.0 131L877.0 551Z" fill="url(#ink_m)"/></svg>
